STARTFONT 2.1
FONT -DEC-Terminal-Medium-R-Normal--25-180-100-100-C-150-iso8859-4
SIZE 18 100 100
FONTBOUNDINGBOX 15 25 0 -5

STARTPROPERTIES 24
FOUNDRY "Monotype"
FAMILY_NAME "VT"
WEIGHT_NAME "Regular"
SLANT "R"
SETWIDTH_NAME "Normal"
ADD_STYLE_NAME ""
PIXEL_SIZE 25
POINT_SIZE 180
RESOLUTION_X 100
RESOLUTION_Y 100
SPACING "C"
AVERAGE_WIDTH 150
CHARSET_REGISTRY "iso8859"
CHARSET_ENCODING "4"
FACE_NAME "VT ISO Latin4"
_DEC_DEVICE_FONTNAMES "PS=vt-isolatin4"
COPYRIGHT "Copyright (c) 1993 Monotype Typography Ltd."
CAP_HEIGHT 14
X_HEIGHT 10
WEIGHT 10
QUAD_WIDTH 15
DEFAULT_CHAR 160
FONT_DESCENT 5
FONT_ASCENT 20
ENDPROPERTIES

CHARS 191

STARTCHAR space
ENCODING 32
SWIDTH 568 0
DWIDTH 15 0
BBX 15 25 0 -5
BITMAP
0000
0000
0000
0000
0000
0000
0000
0000
0000
0000
0000
0000
0000
0000
0000
0000
0000
0000
0000
0000
0000
0000
0000
0000
0000
ENDCHAR

STARTCHAR exclam
ENCODING 33
SWIDTH 568 0
DWIDTH 15 0
BBX 15 25 0 -5
BITMAP
0000
0000
0000
0000
0000
0380
0380
0380
0380
0380
0380
0380
0380
0380
0000
0000
0380
07C0
07C0
0380
0000
0000
0000
0000
0000
ENDCHAR

STARTCHAR quotedbl
ENCODING 34
SWIDTH 568 0
DWIDTH 15 0
BBX 15 25 0 -5
BITMAP
0000
0000
0E70
0E70
0E70
0E70
0E70
0E70
0E70
0000
0000
0000
0000
0000
0000
0000
0000
0000
0000
0000
0000
0000
0000
0000
0000
ENDCHAR

STARTCHAR numbersign
ENCODING 35
SWIDTH 568 0
DWIDTH 15 0
BBX 15 25 0 -5
BITMAP
0000
0000
0000
0000
0000
1CE0
1CE0
1CE0
1CE0
1CE0
1CE0
1CE0
FFFC
1CE0
1CE0
1CE0
FFFC
1CE0
1CE0
1CE0
1CE0
1CE0
1CE0
1CE0
0000
ENDCHAR

STARTCHAR dollar
ENCODING 36
SWIDTH 568 0
DWIDTH 15 0
BBX 15 25 0 -5
BITMAP
0000
0000
0180
0180
0180
0FD8
1C78
3838
3838
3800
3800
3C00
1FF0
0078
0038
0038
3838
3838
3C30
37E0
0300
0300
0300
0300
0000
ENDCHAR

STARTCHAR percent
ENCODING 37
SWIDTH 568 0
DWIDTH 15 0
BBX 15 25 0 -5
BITMAP
0000
0000
0000
0000
0000
3C00
7E00
E700
C300
E700
7E30
3CC0
0300
0CF0
31F8
039C
030C
039C
01F8
00F0
0000
0000
0000
0000
0000
ENDCHAR

STARTCHAR ampersand
ENCODING 38
SWIDTH 568 0
DWIDTH 15 0
BBX 15 25 0 -5
BITMAP
0000
0000
0000
0000
0000
07A0
0EE0
0C60
0C00
0C00
0E00
0600
0F38
1F30
19B0
19B0
18F0
18F0
1FF8
0F38
0000
0000
0000
0000
0000
ENDCHAR

STARTCHAR quoteright
ENCODING 39
SWIDTH 568 0
DWIDTH 15 0
BBX 15 25 0 -5
BITMAP
0000
0000
01E0
01E0
01C0
0380
0380
0300
0300
0000
0000
0000
0000
0000
0000
0000
0000
0000
0000
0000
0000
0000
0000
0000
0000
ENDCHAR

STARTCHAR parenleft
ENCODING 40
SWIDTH 568 0
DWIDTH 15 0
BBX 15 25 0 -5
BITMAP
0000
0000
0000
0040
00C0
0080
0180
0180
0300
0300
0700
0700
0700
0700
0700
0700
0700
0300
0300
0180
0180
0080
00C0
0040
0000
ENDCHAR

STARTCHAR parenright
ENCODING 41
SWIDTH 568 0
DWIDTH 15 0
BBX 15 25 0 -5
BITMAP
0000
0000
0000
0400
0600
0200
0300
0300
0180
0180
01C0
01C0
01C0
01C0
01C0
01C0
01C0
0180
0180
0300
0300
0200
0600
0400
0000
ENDCHAR

STARTCHAR asterisk
ENCODING 42
SWIDTH 568 0
DWIDTH 15 0
BBX 15 25 0 -5
BITMAP
0000
0000
0000
0000
0000
0000
0000
0000
0380
0380
3398
3BB8
1FF0
0FE0
07C0
0FE0
0EE0
1C70
1C70
0000
0000
0000
0000
0000
0000
ENDCHAR

STARTCHAR plus
ENCODING 43
SWIDTH 568 0
DWIDTH 15 0
BBX 15 25 0 -5
BITMAP
0000
0000
0000
0000
0000
0000
0000
0300
0300
0300
0300
0300
7FF8
7FF8
0300
0300
0300
0300
0300
0000
0000
0000
0000
0000
0000
ENDCHAR

STARTCHAR comma
ENCODING 44
SWIDTH 568 0
DWIDTH 15 0
BBX 15 25 0 -5
BITMAP
0000
0000
0000
0000
0000
0000
0000
0000
0000
0000
0000
0000
0000
0000
0000
0000
03C0
03C0
03C0
0380
0380
0700
0600
0600
0000
ENDCHAR

STARTCHAR minus
ENCODING 45
SWIDTH 568 0
DWIDTH 15 0
BBX 15 25 0 -5
BITMAP
0000
0000
0000
0000
0000
0000
0000
0000
0000
0000
0000
0000
7FFC
7FFC
0000
0000
0000
0000
0000
0000
0000
0000
0000
0000
0000
ENDCHAR

STARTCHAR period
ENCODING 46
SWIDTH 568 0
DWIDTH 15 0
BBX 15 25 0 -5
BITMAP
0000
0000
0000
0000
0000
0000
0000
0000
0000
0000
0000
0000
0000
0000
0000
0000
0380
07C0
07C0
0380
0000
0000
0000
0000
0000
ENDCHAR

STARTCHAR slash
ENCODING 47
SWIDTH 568 0
DWIDTH 15 0
BBX 15 25 0 -5
BITMAP
0000
0000
0000
0018
0030
0030
0060
0060
00C0
00C0
0180
0180
0300
0300
0600
0600
0C00
0C00
1800
1800
3000
3000
0000
0000
0000
ENDCHAR

STARTCHAR zero
ENCODING 48
SWIDTH 568 0
DWIDTH 15 0
BBX 15 25 0 -5
BITMAP
0000
0000
0000
0000
0000
0780
1CE0
1860
1860
3870
3870
3870
3870
3870
3870
3870
1860
1860
1CE0
0780
0000
0000
0000
0000
0000
ENDCHAR

STARTCHAR one
ENCODING 49
SWIDTH 568 0
DWIDTH 15 0
BBX 15 25 0 -5
BITMAP
0000
0000
0000
0000
0000
0780
3F80
3380
0380
0380
0380
0380
0380
0380
0380
0380
0380
0380
0380
1FF0
0000
0000
0000
0000
0000
ENDCHAR

STARTCHAR two
ENCODING 50
SWIDTH 568 0
DWIDTH 15 0
BBX 15 25 0 -5
BITMAP
0000
0000
0000
0000
0000
0FC0
1CE0
3870
3870
0070
00F0
00E0
01C0
0380
0700
0E00
1C00
3870
3870
3FF0
0000
0000
0000
0000
0000
ENDCHAR

STARTCHAR three
ENCODING 51
SWIDTH 568 0
DWIDTH 15 0
BBX 15 25 0 -5
BITMAP
0000
0000
0000
0000
0000
0FC0
3CE0
3870
0070
0070
00E0
0780
0780
00E0
0070
0070
0070
3870
3CE0
0FC0
0000
0000
0000
0000
0000
ENDCHAR

STARTCHAR four
ENCODING 52
SWIDTH 568 0
DWIDTH 15 0
BBX 15 25 0 -5
BITMAP
0000
0000
0000
0000
0000
01E0
03E0
02E0
06E0
04E0
0CE0
08E0
18E0
30E0
3FF8
3FF8
00E0
00E0
00E0
07F8
0000
0000
0000
0000
0000
ENDCHAR

STARTCHAR five
ENCODING 53
SWIDTH 568 0
DWIDTH 15 0
BBX 15 25 0 -5
BITMAP
0000
0000
0000
0000
0000
3FE0
3FE0
3800
3800
3800
3BC0
3FE0
38F0
0070
0070
0070
0070
3870
38E0
1F80
0000
0000
0000
0000
0000
ENDCHAR

STARTCHAR six
ENCODING 54
SWIDTH 568 0
DWIDTH 15 0
BBX 15 25 0 -5
BITMAP
0000
0000
0000
0000
0000
01E0
0780
0600
1C00
1C00
39C0
3BE0
3CF0
3870
3870
3870
3870
1C60
1EC0
0780
0000
0000
0000
0000
0000
ENDCHAR

STARTCHAR seven
ENCODING 55
SWIDTH 568 0
DWIDTH 15 0
BBX 15 25 0 -5
BITMAP
0000
0000
0000
0000
0000
3FF0
3FF0
3070
3060
00E0
00C0
00C0
0180
0180
0380
0380
0300
0700
0700
0700
0000
0000
0000
0000
0000
ENDCHAR

STARTCHAR eight
ENCODING 56
SWIDTH 568 0
DWIDTH 15 0
BBX 15 25 0 -5
BITMAP
0000
0000
0000
0000
0000
0780
1CE0
1860
3870
3870
1CE0
0FC0
0780
1CE0
3870
3870
3870
3870
1CE0
0780
0000
0000
0000
0000
0000
ENDCHAR

STARTCHAR nine
ENCODING 57
SWIDTH 568 0
DWIDTH 15 0
BBX 15 25 0 -5
BITMAP
0000
0000
0000
0000
0000
0780
1CE0
3860
3870
3870
3870
3870
1CF0
0F70
0070
00E0
00E0
01C0
0780
1E00
0000
0000
0000
0000
0000
ENDCHAR

STARTCHAR colon
ENCODING 58
SWIDTH 568 0
DWIDTH 15 0
BBX 15 25 0 -5
BITMAP
0000
0000
0000
0000
0000
0000
0000
0000
0380
07C0
07C0
0380
0000
0000
0000
0000
0380
07C0
07C0
0380
0000
0000
0000
0000
0000
ENDCHAR

STARTCHAR semicolon
ENCODING 59
SWIDTH 568 0
DWIDTH 15 0
BBX 15 25 0 -5
BITMAP
0000
0000
0000
0000
0000
0000
0000
0000
0000
01C0
03E0
03E0
01C0
0000
0000
0000
03C0
03C0
03C0
0380
0380
0700
0600
0600
0000
ENDCHAR

STARTCHAR less
ENCODING 60
SWIDTH 568 0
DWIDTH 15 0
BBX 15 25 0 -5
BITMAP
0000
0000
0000
0000
0000
0000
000C
003C
00F8
03E0
0780
1E00
7C00
1E00
0F00
03C0
01E0
0078
003C
000C
0000
0000
0000
0000
0000
ENDCHAR

STARTCHAR equal
ENCODING 61
SWIDTH 568 0
DWIDTH 15 0
BBX 15 25 0 -5
BITMAP
0000
0000
0000
0000
0000
0000
0000
0000
0000
0000
3FF8
3FF8
0000
0000
0000
3FF8
3FF8
0000
0000
0000
0000
0000
0000
0000
0000
ENDCHAR

STARTCHAR greater
ENCODING 62
SWIDTH 568 0
DWIDTH 15 0
BBX 15 25 0 -5
BITMAP
0000
0000
0000
0000
0000
0000
6000
7800
3C00
0F00
0780
01E0
00F0
007C
00F0
03C0
0F80
3E00
7800
6000
0000
0000
0000
0000
0000
ENDCHAR

STARTCHAR question
ENCODING 63
SWIDTH 568 0
DWIDTH 15 0
BBX 15 25 0 -5
BITMAP
0000
0000
0000
0000
0000
0FF0
1C3C
1C1C
001C
001C
003C
00F0
01C0
01C0
0000
0000
01C0
03E0
03E0
01C0
0000
0000
0000
0000
0000
ENDCHAR

STARTCHAR at
ENCODING 64
SWIDTH 568 0
DWIDTH 15 0
BBX 15 25 0 -5
BITMAP
0000
0000
0000
0000
07E0
0C38
1818
300C
300C
701C
70FC
719C
739C
739C
739C
719C
70EE
7000
7000
3800
3C0C
0FF8
03E0
0000
0000
ENDCHAR

STARTCHAR A
ENCODING 65
SWIDTH 568 0
DWIDTH 15 0
BBX 15 25 0 -5
BITMAP
0000
0000
0000
0000
0000
0380
0380
07C0
06C0
0EE0
0CE0
0C60
1C30
1830
1FF8
3838
3838
301C
701C
783C
0000
0000
0000
0000
0000
ENDCHAR

STARTCHAR B
ENCODING 66
SWIDTH 568 0
DWIDTH 15 0
BBX 15 25 0 -5
BITMAP
0000
0000
0000
0000
0000
7FC0
38E0
3870
3870
3870
3870
38E0
3FC0
38E0
3870
3870
3870
3870
38F0
7FE0
0000
0000
0000
0000
0000
ENDCHAR

STARTCHAR C
ENCODING 67
SWIDTH 568 0
DWIDTH 15 0
BBX 15 25 0 -5
BITMAP
0000
0000
0000
0000
0000
0FD8
3C78
3838
7018
7018
7000
7000
7000
7000
7000
7000
7018
3818
3C38
0FE0
0000
0000
0000
0000
0000
ENDCHAR

STARTCHAR D
ENCODING 68
SWIDTH 568 0
DWIDTH 15 0
BBX 15 25 0 -5
BITMAP
0000
0000
0000
0000
0000
7FC0
3870
3870
3838
3838
3838
3838
3838
3838
3838
3838
3838
3870
3870
7FC0
0000
0000
0000
0000
0000
ENDCHAR

STARTCHAR E
ENCODING 69
SWIDTH 568 0
DWIDTH 15 0
BBX 15 25 0 -5
BITMAP
0000
0000
0000
0000
0000
3FF8
1C18
1C18
1C18
1C00
1C40
1C40
1FC0
1C40
1C40
1C18
1C18
1C18
1C18
3FF8
0000
0000
0000
0000
0000
ENDCHAR

STARTCHAR F
ENCODING 70
SWIDTH 568 0
DWIDTH 15 0
BBX 15 25 0 -5
BITMAP
0000
0000
0000
0000
0000
3FFC
1C0C
1C0C
1C0C
1C0C
1C4C
1C40
1FC0
1C40
1C40
1C00
1C00
1C00
1C00
3F00
0000
0000
0000
0000
0000
ENDCHAR

STARTCHAR G
ENCODING 71
SWIDTH 568 0
DWIDTH 15 0
BBX 15 25 0 -5
BITMAP
0000
0000
0000
0000
0000
07D8
1E78
1C38
3818
3818
3800
3800
3800
387C
3838
3838
3838
1C38
1E70
0FE0
0000
0000
0000
0000
0000
ENDCHAR

STARTCHAR H
ENCODING 72
SWIDTH 568 0
DWIDTH 15 0
BBX 15 25 0 -5
BITMAP
0000
0000
0000
0000
0000
7CF8
3870
3870
3870
3870
3870
3870
3FF0
3870
3870
3870
3870
3870
3870
7CF8
0000
0000
0000
0000
0000
ENDCHAR

STARTCHAR I
ENCODING 73
SWIDTH 568 0
DWIDTH 15 0
BBX 15 25 0 -5
BITMAP
0000
0000
0000
0000
0000
1FF0
0380
0380
0380
0380
0380
0380
0380
0380
0380
0380
0380
0380
0380
1FF0
0000
0000
0000
0000
0000
ENDCHAR

STARTCHAR J
ENCODING 74
SWIDTH 568 0
DWIDTH 15 0
BBX 15 25 0 -5
BITMAP
0000
0000
0000
0000
0000
07F8
00E0
00E0
00E0
00E0
00E0
00E0
00E0
00E0
60E0
60E0
60E0
70E0
71C0
1F80
0000
0000
0000
0000
0000
ENDCHAR

STARTCHAR K
ENCODING 75
SWIDTH 568 0
DWIDTH 15 0
BBX 15 25 0 -5
BITMAP
0000
0000
0000
0000
0000
3E7C
1C30
1C60
1CC0
1CC0
1D80
1F00
1F80
1DC0
1DC0
1CE0
1C70
1C70
1C38
3E7C
0000
0000
0000
0000
0000
ENDCHAR

STARTCHAR L
ENCODING 76
SWIDTH 568 0
DWIDTH 15 0
BBX 15 25 0 -5
BITMAP
0000
0000
0000
0000
0000
3E00
1C00
1C00
1C00
1C00
1C00
1C00
1C00
1C00
1C00
1C18
1C18
1C18
1C18
3FF8
0000
0000
0000
0000
0000
ENDCHAR

STARTCHAR M
ENCODING 77
SWIDTH 568 0
DWIDTH 15 0
BBX 15 25 0 -5
BITMAP
0000
0000
0000
0000
0000
F01E
701C
783C
783C
7C7C
745C
76DC
729C
739C
739C
711C
711C
701C
701C
F83E
0000
0000
0000
0000
0000
ENDCHAR

STARTCHAR N
ENCODING 78
SWIDTH 568 0
DWIDTH 15 0
BBX 15 25 0 -5
BITMAP
0000
0000
0000
0000
0000
7C7C
3C38
3E38
3E38
3B38
3938
39B8
38B8
38F8
3878
3878
3838
3838
3818
7C18
0000
0000
0000
0000
0000
ENDCHAR

STARTCHAR O
ENCODING 79
SWIDTH 568 0
DWIDTH 15 0
BBX 15 25 0 -5
BITMAP
0000
0000
0000
0000
0000
0FC0
3870
3870
7038
7038
7038
7038
7038
7038
7038
7038
7038
3870
3870
0FC0
0000
0000
0000
0000
0000
ENDCHAR

STARTCHAR P
ENCODING 80
SWIDTH 568 0
DWIDTH 15 0
BBX 15 25 0 -5
BITMAP
0000
0000
0000
0000
0000
7FC0
3870
3838
3838
3838
3838
3838
3870
3FE0
3800
3800
3800
3800
3800
7C00
0000
0000
0000
0000
0000
ENDCHAR

STARTCHAR Q
ENCODING 81
SWIDTH 568 0
DWIDTH 15 0
BBX 15 25 0 -5
BITMAP
0000
0000
0000
0000
0000
0FC0
3870
3870
7038
7038
7038
7038
7038
7038
7038
7038
7038
3870
3860
0FC0
0600
0DC4
1FEC
18F8
0000
ENDCHAR

STARTCHAR R
ENCODING 82
SWIDTH 568 0
DWIDTH 15 0
BBX 15 25 0 -5
BITMAP
0000
0000
0000
0000
0000
7FC0
3870
3838
3838
3838
3830
3860
3FC0
39E0
38E0
38F0
3870
3878
3838
7C3C
0000
0000
0000
0000
0000
ENDCHAR

STARTCHAR S
ENCODING 83
SWIDTH 568 0
DWIDTH 15 0
BBX 15 25 0 -5
BITMAP
0000
0000
0000
0000
0000
0FB0
1C70
3870
3830
3800
3800
1E00
0FF0
0078
0038
3038
3038
3838
3C70
37E0
0000
0000
0000
0000
0000
ENDCHAR

STARTCHAR T
ENCODING 84
SWIDTH 568 0
DWIDTH 15 0
BBX 15 25 0 -5
BITMAP
0000
0000
0000
0000
0000
7FFC
638C
638C
638C
638C
0380
0380
0380
0380
0380
0380
0380
0380
0380
07C0
0000
0000
0000
0000
0000
ENDCHAR

STARTCHAR U
ENCODING 85
SWIDTH 568 0
DWIDTH 15 0
BBX 15 25 0 -5
BITMAP
0000
0000
0000
0000
0000
7C7C
3838
3838
3838
3838
3838
3838
3838
3838
3838
3838
3838
1C70
1C70
07C0
0000
0000
0000
0000
0000
ENDCHAR

STARTCHAR V
ENCODING 86
SWIDTH 568 0
DWIDTH 15 0
BBX 15 25 0 -5
BITMAP
0000
0000
0000
0000
0000
FC3E
700C
381C
3818
3818
1C38
1C30
1C30
0E70
0E60
0E60
07C0
07C0
0380
0380
0000
0000
0000
0000
0000
ENDCHAR

STARTCHAR W
ENCODING 87
SWIDTH 568 0
DWIDTH 15 0
BBX 15 25 0 -5
BITMAP
0000
0000
0000
0000
0000
F83E
701C
701C
711C
711C
711C
739C
729C
36D8
36D8
3458
3458
3C78
3838
3838
0000
0000
0000
0000
0000
ENDCHAR

STARTCHAR X
ENCODING 88
SWIDTH 568 0
DWIDTH 15 0
BBX 15 25 0 -5
BITMAP
0000
0000
0000
0000
0000
7E7C
3C38
1C30
0E60
0E60
07C0
0380
0380
03C0
06E0
0EE0
0C70
1C70
3838
7C7C
0000
0000
0000
0000
0000
ENDCHAR

STARTCHAR Y
ENCODING 89
SWIDTH 568 0
DWIDTH 15 0
BBX 15 25 0 -5
BITMAP
0000
0000
0000
0000
0000
FC3C
7818
3830
1C30
1C60
0EC0
07C0
0780
0380
0380
0380
0380
0380
0380
07C0
0000
0000
0000
0000
0000
ENDCHAR

STARTCHAR Z
ENCODING 90
SWIDTH 568 0
DWIDTH 15 0
BBX 15 25 0 -5
BITMAP
0000
0000
0000
0000
0000
7FF8
6038
6070
60E0
00E0
01C0
0380
0380
0700
0E00
1C00
1C18
3818
7018
7FF8
0000
0000
0000
0000
0000
ENDCHAR

STARTCHAR bracketleft
ENCODING 91
SWIDTH 568 0
DWIDTH 15 0
BBX 15 25 0 -5
BITMAP
0000
0000
0000
03F0
0380
0380
0380
0380
0380
0380
0380
0380
0380
0380
0380
0380
0380
0380
0380
0380
0380
03F0
0000
0000
0000
ENDCHAR

STARTCHAR backslash
ENCODING 92
SWIDTH 568 0
DWIDTH 15 0
BBX 15 25 0 -5
BITMAP
0000
0000
0000
3000
3000
1800
1800
0C00
0C00
0600
0600
0300
0300
0180
0180
00C0
00C0
0060
0060
0030
0030
0018
0000
0000
0000
ENDCHAR

STARTCHAR bracketright
ENCODING 93
SWIDTH 568 0
DWIDTH 15 0
BBX 15 25 0 -5
BITMAP
0000
0000
0000
0F80
0380
0380
0380
0380
0380
0380
0380
0380
0380
0380
0380
0380
0380
0380
0380
0380
0380
0F80
0000
0000
0000
ENDCHAR

STARTCHAR asciicircum
ENCODING 94
SWIDTH 568 0
DWIDTH 15 0
BBX 15 25 0 -5
BITMAP
0000
0000
0000
0000
0000
0000
0000
0000
0100
0380
07C0
0EE0
1C70
3838
0000
0000
0000
0000
0000
0000
0000
0000
0000
0000
0000
ENDCHAR

STARTCHAR underscore
ENCODING 95
SWIDTH 568 0
DWIDTH 15 0
BBX 15 25 0 -5
BITMAP
0000
0000
0000
0000
0000
0000
0000
0000
0000
0000
0000
0000
0000
0000
0000
0000
0000
0000
FFFE
FFFE
0000
0000
0000
0000
0000
ENDCHAR

STARTCHAR quoteleft
ENCODING 96
SWIDTH 568 0
DWIDTH 15 0
BBX 15 25 0 -5
BITMAP
0000
0000
0600
0F00
0F80
03C0
01E0
0060
0030
0000
0000
0000
0000
0000
0000
0000
0000
0000
0000
0000
0000
0000
0000
0000
0000
ENDCHAR

STARTCHAR a
ENCODING 97
SWIDTH 568 0
DWIDTH 15 0
BBX 15 25 0 -5
BITMAP
0000
0000
0000
0000
0000
0000
0000
0000
07E0
0E70
0038
0038
07F8
0E38
1C38
1C38
1C38
1C38
0E78
07BC
0000
0000
0000
0000
0000
ENDCHAR

STARTCHAR b
ENCODING 98
SWIDTH 568 0
DWIDTH 15 0
BBX 15 25 0 -5
BITMAP
0000
0000
0000
0000
7800
3800
3800
3800
3BC0
3E70
3C30
3838
3838
3838
3838
3838
3838
3C30
3E70
7BC0
0000
0000
0000
0000
0000
ENDCHAR

STARTCHAR c
ENCODING 99
SWIDTH 568 0
DWIDTH 15 0
BBX 15 25 0 -5
BITMAP
0000
0000
0000
0000
0000
0000
0000
0000
07D8
1E78
1C38
3818
3818
3800
3800
3800
3818
1C18
1E30
07E0
0000
0000
0000
0000
0000
ENDCHAR

STARTCHAR d
ENCODING 100
SWIDTH 568 0
DWIDTH 15 0
BBX 15 25 0 -5
BITMAP
0000
0000
0000
0000
0078
0038
0038
0038
07B8
1CF8
1878
3838
3838
3838
3838
3838
3838
1878
1CF8
07BC
0000
0000
0000
0000
0000
ENDCHAR

STARTCHAR e
ENCODING 101
SWIDTH 568 0
DWIDTH 15 0
BBX 15 25 0 -5
BITMAP
0000
0000
0000
0000
0000
0000
0000
0000
07E0
1C70
1838
3838
3838
3FF8
3800
3800
3C00
1C18
1E38
07F0
0000
0000
0000
0000
0000
ENDCHAR

STARTCHAR f
ENCODING 102
SWIDTH 568 0
DWIDTH 15 0
BBX 15 25 0 -5
BITMAP
0000
0000
0000
0000
00FC
01C0
0380
0380
0FF8
0380
0380
0380
0380
0380
0380
0380
0380
0380
0380
1FF8
0000
0000
0000
0000
0000
ENDCHAR

STARTCHAR g
ENCODING 103
SWIDTH 568 0
DWIDTH 15 0
BBX 15 25 0 -5
BITMAP
0000
0000
0000
0000
0000
0000
0000
0000
079C
1CF8
1878
3838
3838
3838
3838
3838
3838
1878
1CF8
07B8
0038
0030
1FF0
1FC0
0000
ENDCHAR

STARTCHAR h
ENCODING 104
SWIDTH 568 0
DWIDTH 15 0
BBX 15 25 0 -5
BITMAP
0000
0000
0000
0000
3C00
1C00
1C00
1C00
1DE0
1E70
1C38
1C38
1C38
1C38
1C38
1C38
1C38
1C38
1C38
3C3C
0000
0000
0000
0000
0000
ENDCHAR

STARTCHAR i
ENCODING 105
SWIDTH 570 0
DWIDTH 15 0
BBX 15 25 0 -5
BITMAP
0000
0000
0000
0380
0380
0380
0000
0000
1F80
0380
0380
0380
0380
0380
0380
0380
0380
0380
0380
3FF8
0000
0000
0000
0000
0000
ENDCHAR

STARTCHAR j
ENCODING 106
SWIDTH 568 0
DWIDTH 15 0
BBX 15 25 0 -5
BITMAP
0000
0000
0000
01C0
01C0
01C0
0000
0000
1FC0
01C0
01C0
01C0
01C0
01C0
01C0
01C0
01C0
01C0
01C0
01C0
01C0
0180
3F80
3E00
0000
ENDCHAR

STARTCHAR k
ENCODING 107
SWIDTH 568 0
DWIDTH 15 0
BBX 15 25 0 -5
BITMAP
0000
0000
0000
0000
3C00
1C00
1C00
1C00
1C7C
1C38
1C60
1CE0
1CC0
1F80
1DC0
1CE0
1C70
1C38
1C1C
3E3E
0000
0000
0000
0000
0000
ENDCHAR

STARTCHAR l
ENCODING 108
SWIDTH 568 0
DWIDTH 15 0
BBX 15 25 0 -5
BITMAP
0000
0000
0000
0000
1F80
0380
0380
0380
0380
0380
0380
0380
0380
0380
0380
0380
0380
0380
0380
3FF8
0000
0000
0000
0000
0000
ENDCHAR

STARTCHAR m
ENCODING 109
SWIDTH 568 0
DWIDTH 15 0
BBX 15 25 0 -5
BITMAP
0000
0000
0000
0000
0000
0000
0000
0000
6F78
739C
739C
739C
739C
739C
739C
739C
739C
739C
739C
739C
0000
0000
0000
0000
0000
ENDCHAR

STARTCHAR n
ENCODING 110
SWIDTH 568 0
DWIDTH 15 0
BBX 15 25 0 -5
BITMAP
0000
0000
0000
0000
0000
0000
0000
0000
39E0
1E70
1C38
1C38
1C38
1C38
1C38
1C38
1C38
1C38
1C38
3C3C
0000
0000
0000
0000
0000
ENDCHAR

STARTCHAR o
ENCODING 111
SWIDTH 568 0
DWIDTH 15 0
BBX 15 25 0 -5
BITMAP
0000
0000
0000
0000
0000
0000
0000
0000
07C0
1C70
1C70
3838
3838
3838
3838
3838
3838
1C70
1C70
07C0
0000
0000
0000
0000
0000
ENDCHAR

STARTCHAR p
ENCODING 112
SWIDTH 568 0
DWIDTH 15 0
BBX 15 25 0 -5
BITMAP
0000
0000
0000
0000
0000
0000
0000
0000
7BC0
3E70
3C30
3838
3838
3838
3838
3838
3838
3C30
3E70
3BC0
3800
3800
3800
7C00
0000
ENDCHAR

STARTCHAR q
ENCODING 113
SWIDTH 568 0
DWIDTH 15 0
BBX 15 25 0 -5
BITMAP
0000
0000
0000
0000
0000
0000
0000
0000
07CC
1CF8
1878
3838
3838
3838
3838
3838
3838
1878
1CF8
07B8
0038
0038
0038
007C
0000
ENDCHAR

STARTCHAR r
ENCODING 114
SWIDTH 568 0
DWIDTH 15 0
BBX 15 25 0 -5
BITMAP
0000
0000
0000
0000
0000
0000
0000
0000
3E78
0F9C
0F1C
0E00
0E00
0E00
0E00
0E00
0E00
0E00
0E00
3FC0
0000
0000
0000
0000
0000
ENDCHAR

STARTCHAR s
ENCODING 115
SWIDTH 568 0
DWIDTH 15 0
BBX 15 25 0 -5
BITMAP
0000
0000
0000
0000
0000
0000
0000
0000
0FD8
1C78
3838
3838
1E00
0FE0
01F0
0038
3838
3838
3C70
37E0
0000
0000
0000
0000
0000
ENDCHAR

STARTCHAR t
ENCODING 116
SWIDTH 568 0
DWIDTH 15 0
BBX 15 25 0 -5
BITMAP
0000
0000
0000
0000
0E00
0E00
0E00
0E00
3FE0
0E00
0E00
0E00
0E00
0E00
0E00
0E00
0E00
0E1C
073C
03F0
0000
0000
0000
0000
0000
ENDCHAR

STARTCHAR u
ENCODING 117
SWIDTH 568 0
DWIDTH 15 0
BBX 15 25 0 -5
BITMAP
0000
0000
0000
0000
0000
0000
0000
0000
78F0
3870
3870
3870
3870
3870
3870
3870
3870
3870
3CF0
1F3C
0000
0000
0000
0000
0000
ENDCHAR

STARTCHAR v
ENCODING 118
SWIDTH 568 0
DWIDTH 15 0
BBX 15 25 0 -5
BITMAP
0000
0000
0000
0000
0000
0000
0000
0000
7E3E
381C
3C18
1C18
1C30
0E30
0E60
0760
07C0
03C0
0380
0180
0000
0000
0000
0000
0000
ENDCHAR

STARTCHAR w
ENCODING 119
SWIDTH 568 0
DWIDTH 15 0
BBX 15 25 0 -5
BITMAP
0000
0000
0000
0000
0000
0000
0000
0000
F03E
C00C
E10C
E10C
639C
7398
76D8
36D8
3C78
3C78
1830
1830
0000
0000
0000
0000
0000
ENDCHAR

STARTCHAR x
ENCODING 120
SWIDTH 568 0
DWIDTH 15 0
BBX 15 25 0 -5
BITMAP
0000
0000
0000
0000
0000
0000
0000
0000
7C78
3830
1C60
0EC0
0780
0380
07C0
0FC0
0CE0
1C70
3838
7C7C
0000
0000
0000
0000
0000
ENDCHAR

STARTCHAR y
ENCODING 121
SWIDTH 568 0
DWIDTH 15 0
BBX 15 25 0 -5
BITMAP
0000
0000
0000
0000
0000
0000
0000
0000
7C7C
3838
3830
1C30
1C60
0E60
0E60
06C0
07C0
0380
0380
0380
0300
0700
0700
1F80
0000
ENDCHAR

STARTCHAR z
ENCODING 122
SWIDTH 568 0
DWIDTH 15 0
BBX 15 25 0 -5
BITMAP
0000
0000
0000
0000
0000
0000
0000
0000
3FF0
3070
20E0
00E0
01C0
0380
0700
0700
0E00
1C10
3830
3FF0
0000
0000
0000
0000
0000
ENDCHAR

STARTCHAR braceleft
ENCODING 123
SWIDTH 568 0
DWIDTH 15 0
BBX 15 25 0 -5
BITMAP
0000
0000
01E0
0380
0380
0380
0380
0380
0380
0380
0700
0600
1C00
0600
0700
0380
0380
0380
0380
0380
0380
0380
01E0
0000
0000
ENDCHAR

STARTCHAR bar
ENCODING 124
SWIDTH 568 0
DWIDTH 15 0
BBX 15 25 0 -5
BITMAP
0000
0380
0380
0380
0380
0380
0380
0380
0380
0380
0380
0380
0380
0380
0380
0380
0380
0380
0380
0380
0380
0380
0380
0380
0380
ENDCHAR

STARTCHAR braceright
ENCODING 125
SWIDTH 568 0
DWIDTH 15 0
BBX 15 25 0 -5
BITMAP
0000
0000
0F00
0380
0380
0380
0380
0380
0380
0380
01C0
00C0
0070
00C0
01C0
0380
0380
0380
0380
0380
0380
0380
0F00
0000
0000
ENDCHAR

STARTCHAR asciitilde
ENCODING 126
SWIDTH 568 0
DWIDTH 15 0
BBX 15 25 0 -5
BITMAP
0000
0000
0000
0000
0000
0000
0000
0000
0000
0000
0E10
1F90
13F0
10E0
0000
0000
0000
0000
0000
0000
0000
0000
0000
0000
0000
ENDCHAR

STARTCHAR space
ENCODING 160
SWIDTH 568 0
DWIDTH 15 0
BBX 15 25 0 -5
BITMAP
0000
0000
0000
0000
0000
0000
0000
0000
0000
0000
0000
0000
0000
0000
0000
0000
0000
0000
0000
0000
0000
0000
0000
0000
0000
ENDCHAR

STARTCHAR Aogonek
ENCODING 161
SWIDTH 568 0
DWIDTH 15 0
BBX 15 25 0 -5
BITMAP
0000
0000
0000
0000
0000
0700
0700
0F80
0D80
1DC0
19C0
18C0
3860
3060
3FF0
7070
7070
6038
E038
F878
0070
0076
003C
0000
0000
ENDCHAR

STARTCHAR afii240
ENCODING 162
SWIDTH 568 0
DWIDTH 15 0
BBX 15 25 0 -5
BITMAP
0000
0000
0000
0000
0000
0000
0000
0000
0000
7DF0
38E0
39C0
3B80
3F00
3F00
3F00
3B80
39C0
38E0
7DF0
0000
0000
0000
0000
0000
ENDCHAR

STARTCHAR Rcommaaccent
ENCODING 163
SWIDTH 568 0
DWIDTH 15 0
BBX 15 25 0 -5
BITMAP
0000
0000
0000
0000
0000
7FC0
3870
3838
3838
3838
3830
3860
3FC0
39E0
38E0
38F0
3870
3878
3838
7C3C
0300
0780
0380
0300
0600
ENDCHAR

STARTCHAR currency
ENCODING 164
SWIDTH 568 0
DWIDTH 15 0
BBX 15 25 0 -5
BITMAP
0000
0000
0000
0000
0000
0000
0000
701C
701C
3FF8
1C70
1830
1830
1830
1830
1C70
3FF8
701C
701C
0000
0000
0000
0000
0000
0000
ENDCHAR

STARTCHAR Itilde
ENCODING 165
SWIDTH 568 0
DWIDTH 15 0
BBX 15 25 0 -5
BITMAP
0E10
1F90
13F0
10E0
0000
1FF0
0380
0380
0380
0380
0380
0380
0380
0380
0380
0380
0380
0380
0380
1FF0
0000
0000
0000
0000
0000
ENDCHAR

STARTCHAR Lcommaaccent
ENCODING 166
SWIDTH 568 0
DWIDTH 15 0
BBX 15 25 0 -5
BITMAP
0000
0000
0000
0000
0000
3E00
1C00
1C00
1C00
1C00
1C00
1C00
1C00
1C00
1C00
1C18
1C18
1C18
1C18
3FF8
0300
0780
0380
0300
0600
ENDCHAR

STARTCHAR section
ENCODING 167
SWIDTH 568 0
DWIDTH 15 0
BBX 15 25 0 -5
BITMAP
0000
0000
0000
0000
0000
03F8
0E38
0C18
1C18
3E00
3300
3180
38C0
1860
0C30
0638
0318
0198
00F0
30E0
3060
38E0
3FC0
0000
0000
ENDCHAR

STARTCHAR hungarumlaut
ENCODING 168
SWIDTH 568 0
DWIDTH 15 0
BBX 15 25 0 -5
BITMAP
0000
0000
0F3C
1C70
30C0
6180
0000
0000
0000
0000
0000
0000
0000
0000
0000
0000
0000
0000
0000
0000
0000
0000
0000
0000
0000
ENDCHAR

STARTCHAR Scaron
ENCODING 169
SWIDTH 568 0
DWIDTH 15 0
BBX 15 25 0 -5
BITMAP
1C70
0EE0
0380
0100
0000
0FB0
1C70
3870
3830
3800
3800
1E00
0FF0
0078
0038
3038
3038
3838
3C70
37E0
0000
0000
0000
0000
0000
ENDCHAR

STARTCHAR Emacron
ENCODING 170
SWIDTH 568 0
DWIDTH 15 0
BBX 15 25 0 -5
BITMAP
0000
0000
1FF0
0000
0000
3FF8
1C18
1C18
1C18
1C00
1C40
1C40
1FC0
1C40
1C40
1C18
1C18
1C18
1C18
3FF8
0000
0000
0000
0000
0000
ENDCHAR

STARTCHAR Gcommaaccent
ENCODING 171
SWIDTH 568 0
DWIDTH 15 0
BBX 15 25 0 -5
BITMAP
0000
0000
0000
0000
0000
07D8
1E78
1C38
3818
3818
3800
3800
3800
387C
3838
3838
3838
1C38
1E70
0FE0
0180
03C0
01C0
0180
0300
ENDCHAR

STARTCHAR afii237
ENCODING 172
SWIDTH 568 0
DWIDTH 15 0
BBX 15 25 0 -5
BITMAP
0000
0000
0000
0000
0000
7FFC
638C
638C
638C
638C
0380
0380
1FF0
0380
0380
0380
0380
0380
0380
07C0
0000
0000
0000
0000
0000
ENDCHAR

STARTCHAR hyphen
ENCODING 173
SWIDTH 568 0
DWIDTH 15 0
BBX 15 25 0 -5
BITMAP
0000
0000
0000
0000
0000
0000
0000
0000
0000
0000
0000
0000
7FFC
7FFC
0000
0000
0000
0000
0000
0000
0000
0000
0000
0000
0000
ENDCHAR

STARTCHAR Zcaron
ENCODING 174
SWIDTH 568 0
DWIDTH 15 0
BBX 15 25 0 -5
BITMAP
1C70
0EE0
0380
0100
0000
7FF8
6038
6070
60E0
00E0
01C0
0380
0380
0700
0E00
1C00
1C18
3818
7018
7FF8
0000
0000
0000
0000
0000
ENDCHAR

STARTCHAR macron
ENCODING 175
SWIDTH 568 0
DWIDTH 15 0
BBX 15 25 0 -5
BITMAP
0000
0000
0000
0000
0000
0000
1FF0
0000
0000
0000
0000
0000
0000
0000
0000
0000
0000
0000
0000
0000
0000
0000
0000
0000
0000
ENDCHAR

STARTCHAR degree
ENCODING 176
SWIDTH 568 0
DWIDTH 15 0
BBX 15 25 0 -5
BITMAP
0000
0000
07C0
0C60
1830
1830
1830
1830
0C60
07C0
0000
0000
0000
0000
0000
0000
0000
0000
0000
0000
0000
0000
0000
0000
0000
ENDCHAR

STARTCHAR aogonek
ENCODING 177
SWIDTH 568 0
DWIDTH 15 0
BBX 15 25 0 -5
BITMAP
0000
0000
0000
0000
0000
0000
0000
0000
0FC0
1CE0
0070
0070
0FF0
1C70
3870
3870
3870
3870
1CF0
0F78
0070
0076
003C
0000
0000
ENDCHAR

STARTCHAR ogonek
ENCODING 178
SWIDTH 568 0
DWIDTH 15 0
BBX 15 25 0 -5
BITMAP
0000
0000
0000
0000
0000
0000
0000
0000
0000
0000
0000
0000
0000
0000
0000
0000
0000
0000
0000
0700
0700
0760
03C0
0000
0000
ENDCHAR

STARTCHAR rcommaaccent
ENCODING 179
SWIDTH 568 0
DWIDTH 15 0
BBX 15 25 0 -5
BITMAP
0000
0000
0000
0000
0000
0000
0000
0000
3E78
0F9C
0F1C
0E00
0E00
0E00
0E00
0E00
0E00
0E00
0E00
3FC0
0600
0F00
0700
0600
0C00
ENDCHAR

STARTCHAR acute
ENCODING 180
SWIDTH 568 0
DWIDTH 15 0
BBX 15 25 0 -5
BITMAP
0000
0000
01E0
0380
0600
0C00
0000
0000
0000
0000
0000
0000
0000
0000
0000
0000
0000
0000
0000
0000
0000
0000
0000
0000
0000
ENDCHAR

STARTCHAR itilde
ENCODING 181
SWIDTH 568 0
DWIDTH 15 0
BBX 15 25 0 -5
BITMAP
0000
0000
0000
0E10
1F90
13F0
10E0
0000
1F80
0380
0380
0380
0380
0380
0380
0380
0380
0380
0380
3FF8
0000
0000
0000
0000
0000
ENDCHAR

STARTCHAR lcommaaccent
ENCODING 182
SWIDTH 568 0
DWIDTH 15 0
BBX 15 25 0 -5
BITMAP
0000
0000
0000
0000
1F80
0380
0380
0380
0380
0380
0380
0380
0380
0380
0380
0380
0380
0380
0380
3FF8
0180
03C0
01C0
0180
0300
ENDCHAR

STARTCHAR caron
ENCODING 183
SWIDTH 568 0
DWIDTH 15 0
BBX 15 25 0 -5
BITMAP
0000
0000
1C70
0EE0
0380
0100
0000
0000
0000
0000
0000
0000
0000
0000
0000
0000
0000
0000
0000
0000
0000
0000
0000
0000
0000
ENDCHAR

STARTCHAR commaaccent
ENCODING 184
SWIDTH 568 0
DWIDTH 15 0
BBX 15 25 0 -5
BITMAP
0000
0000
0000
0000
0000
0000
0000
0000
0000
0000
0000
0000
0000
0000
0000
0000
0000
0000
0000
0000
0300
0780
0380
0300
0600
ENDCHAR

STARTCHAR scaron
ENCODING 185
SWIDTH 568 0
DWIDTH 15 0
BBX 15 25 0 -5
BITMAP
0000
0000
0000
1C70
0EE0
0380
0100
0000
0FD8
1C78
3838
3838
1E00
0FE0
01F0
0038
3838
3838
3C70
37E0
0000
0000
0000
0000
0000
ENDCHAR

STARTCHAR emacron
ENCODING 186
SWIDTH 568 0
DWIDTH 15 0
BBX 15 25 0 -5
BITMAP
0000
0000
0000
0000
0000
1FF0
0000
0000
07E0
1C70
1838
3838
3838
3FF8
3800
3800
3C00
1C18
1E38
07F0
0000
0000
0000
0000
0000
ENDCHAR

STARTCHAR gcommaaccent
ENCODING 187
SWIDTH 568 0
DWIDTH 15 0
BBX 15 25 0 -5
BITMAP
0000
0000
0180
0300
0700
0780
0300
0000
079C
1CF8
1878
3838
3838
3838
3838
3838
3838
1878
1CF8
07B8
0038
0030
1FF0
1FC0
0000
ENDCHAR

STARTCHAR afii253
ENCODING 188
SWIDTH 568 0
DWIDTH 15 0
BBX 15 25 0 -5
BITMAP
0000
0000
0000
0000
0E00
0E00
0E00
0E00
3FE0
0E00
0E00
0E00
3FE0
0E00
0E00
0E00
0E00
0E1C
073C
03F0
0000
0000
0000
0000
0000
ENDCHAR

STARTCHAR afii238
ENCODING 189
SWIDTH 568 0
DWIDTH 15 0
BBX 15 25 0 -5
BITMAP
0000
0000
0000
0000
0000
7BE0
3E38
3C18
381C
381C
381C
381C
381C
381C
381C
381C
381C
3818
39B8
7DE0
0000
0000
0000
0000
0000
ENDCHAR

STARTCHAR zcaron
ENCODING 190
SWIDTH 568 0
DWIDTH 15 0
BBX 15 25 0 -5
BITMAP
0000
0000
0000
1C70
0EE0
0380
0100
0000
3FF0
3070
20E0
00E0
01C0
0380
0700
0700
0E00
1C10
3830
3FF0
0000
0000
0000
0000
0000
ENDCHAR

STARTCHAR afii254
ENCODING 191
SWIDTH 568 0
DWIDTH 15 0
BBX 15 25 0 -5
BITMAP
0000
0000
0000
0000
0000
0000
0000
0000
0000
7BE0
3E70
3C38
3838
3838
3838
3838
3838
3838
3838
7838
0038
0038
0038
0070
07E0
ENDCHAR

STARTCHAR Amacron
ENCODING 192
SWIDTH 568 0
DWIDTH 15 0
BBX 15 25 0 -5
BITMAP
0000
0000
1FF0
0000
0000
0380
0380
07C0
06C0
0EE0
0CE0
0C60
1C30
1830
1FF8
3838
3838
301C
701C
783C
0000
0000
0000
0000
0000
ENDCHAR

STARTCHAR Aacute
ENCODING 193
SWIDTH 568 0
DWIDTH 15 0
BBX 15 25 0 -5
BITMAP
00F0
01E0
0380
0700
0000
0380
0380
07C0
06C0
0EE0
0CE0
0C60
1C70
1830
1FF8
3838
3838
301C
701C
783C
0000
0000
0000
0000
0000
ENDCHAR

STARTCHAR Acircumflex
ENCODING 194
SWIDTH 568 0
DWIDTH 15 0
BBX 15 25 0 -5
BITMAP
0100
0380
0EE0
1C70
0000
0380
0380
07C0
06C0
0EE0
0CE0
0C60
1C30
1830
1FF8
3838
3838
301C
701C
783C
0000
0000
0000
0000
0000
ENDCHAR

STARTCHAR Atilde
ENCODING 195
SWIDTH 568 0
DWIDTH 15 0
BBX 15 25 0 -5
BITMAP
0000
0760
0DC0
0000
0000
0380
0380
07C0
06C0
0EE0
0CE0
0C60
1C30
1830
1FF8
3838
3838
301C
701C
783C
0000
0000
0000
0000
0000
ENDCHAR

STARTCHAR Adieresis
ENCODING 196
SWIDTH 568 0
DWIDTH 15 0
BBX 15 25 0 -5
BITMAP
0000
1C70
1C70
1C70
0000
0380
0380
07C0
06C0
0EE0
0CE0
0C60
1C30
1830
1FF8
3838
3838
301C
701C
783C
0000
0000
0000
0000
0000
ENDCHAR

STARTCHAR Aring
ENCODING 197
SWIDTH 568 0
DWIDTH 15 0
BBX 15 25 0 -5
BITMAP
07C0
0C60
0C60
0C60
07C0
0380
0380
07C0
06C0
0EE0
0CE0
0C60
1C30
1830
1FF8
3838
3838
301C
701C
783C
0000
0000
0000
0000
0000
ENDCHAR

STARTCHAR AE
ENCODING 198
SWIDTH 568 0
DWIDTH 15 0
BBX 15 25 0 -5
BITMAP
0000
0000
0000
0000
0000
07FE
07C6
0DC6
0DC6
0DC0
19C8
19C8
19F8
31C8
3FC8
61C0
61C6
61C6
C1C6
F3FE
0000
0000
0000
0000
0000
ENDCHAR

STARTCHAR Iogonek
ENCODING 199
SWIDTH 568 0
DWIDTH 15 0
BBX 15 25 0 -5
BITMAP
0000
0000
0000
0000
0000
1FF0
0380
0380
0380
0380
0380
0380
0380
0380
0380
0380
0380
0380
0380
1FF0
01C0
01D8
00F0
0000
0000
ENDCHAR

STARTCHAR Ccaron
ENCODING 200
SWIDTH 568 0
DWIDTH 15 0
BBX 15 25 0 -5
BITMAP
1C70
0EE0
0380
0100
0000
0FD8
3C78
3838
7018
7018
7000
7000
7000
7000
7000
7000
7018
3818
3C38
0FE0
0000
0000
0000
0000
0000
ENDCHAR

STARTCHAR Eacute
ENCODING 201
SWIDTH 568 0
DWIDTH 15 0
BBX 15 25 0 -5
BITMAP
00F0
01E0
0380
0700
0000
3FF8
1C18
1C18
1C18
1C00
1C40
1C40
1FC0
1C40
1C40
1C18
1C18
1C18
1C18
3FF8
0000
0000
0000
0000
0000
ENDCHAR

STARTCHAR Eogonek
ENCODING 202
SWIDTH 568 0
DWIDTH 15 0
BBX 15 25 0 -5
BITMAP
0000
0000
0000
0000
0000
7FF0
3830
3830
3830
3800
3880
3880
3F80
3880
3880
3830
3830
3830
3830
7FF0
0070
0070
0076
003C
0000
ENDCHAR

STARTCHAR Edieresis
ENCODING 203
SWIDTH 568 0
DWIDTH 15 0
BBX 15 25 0 -5
BITMAP
0E70
0E70
0E70
0000
0000
3FF8
1C18
1C18
1C18
1C00
1C40
1C40
1FC0
1C40
1C40
1C18
1C18
1C18
1C18
3FF8
0000
0000
0000
0000
0000
ENDCHAR

STARTCHAR Edotaccent
ENCODING 204
SWIDTH 568 0
DWIDTH 15 0
BBX 15 25 0 -5
BITMAP
0380
0380
0380
0000
0000
3FF8
1C18
1C18
1C18
1C00
1C40
1C40
1FC0
1C40
1C40
1C18
1C18
1C18
1C18
3FF8
0000
0000
0000
0000
0000
ENDCHAR

STARTCHAR Iacute
ENCODING 205
SWIDTH 568 0
DWIDTH 15 0
BBX 15 25 0 -5
BITMAP
00F0
01E0
0380
0700
0000
1FF0
0380
0380
0380
0380
0380
0380
0380
0380
0380
0380
0380
0380
0380
1FF0
0000
0000
0000
0000
0000
ENDCHAR

STARTCHAR Icircumflex
ENCODING 206
SWIDTH 568 0
DWIDTH 15 0
BBX 15 25 0 -5
BITMAP
0380
0EE0
1C70
0000
0000
1FF0
0380
0380
0380
0380
0380
0380
0380
0380
0380
0380
0380
0380
0380
1FF0
0000
0000
0000
0000
0000
ENDCHAR

STARTCHAR Imacron
ENCODING 207
SWIDTH 568 0
DWIDTH 15 0
BBX 15 25 0 -5
BITMAP
0000
0000
1FF0
0000
0000
1FF0
0380
0380
0380
0380
0380
0380
0380
0380
0380
0380
0380
0380
0380
1FF0
0000
0000
0000
0000
0000
ENDCHAR

STARTCHAR Eth
ENCODING 208
SWIDTH 568 0
DWIDTH 15 0
BBX 15 25 0 -5
BITMAP
0000
0000
0000
0000
0000
7FC0
3870
3870
3838
3838
3838
3838
7F38
3838
3838
3838
3838
3870
3870
7FC0
0000
0000
0000
0000
0000
ENDCHAR

STARTCHAR Ncommaaccent
ENCODING 209
SWIDTH 568 0
DWIDTH 15 0
BBX 15 25 0 -5
BITMAP
0000
0000
0000
0000
0000
7C7C
3C38
3E38
3E38
3B38
3938
39B8
38B8
38F8
3878
3878
3838
3838
3818
7C18
0300
0780
0380
0300
0600
ENDCHAR

STARTCHAR Omacron
ENCODING 210
SWIDTH 568 0
DWIDTH 15 0
BBX 15 25 0 -5
BITMAP
0000
0000
3FE0
0000
0000
0FC0
3870
3870
7038
7038
7038
7038
7038
7038
7038
7038
7038
3870
3870
0FC0
0000
0000
0000
0000
0000
ENDCHAR

STARTCHAR Kcommaaccent
ENCODING 211
SWIDTH 568 0
DWIDTH 15 0
BBX 15 25 0 -5
BITMAP
0000
0000
0000
0000
0000
3E7C
1C30
1C60
1CC0
1CC0
1D80
1F00
1F80
1DC0
1DC0
1CE0
1C70
1C70
1C38
3E7C
0180
03C0
01C0
0180
0300
ENDCHAR

STARTCHAR Ocircumflex
ENCODING 212
SWIDTH 568 0
DWIDTH 15 0
BBX 15 25 0 -5
BITMAP
0380
0EE0
1C70
0000
0000
0FC0
3870
3870
7038
7038
7038
7038
7038
7038
7038
7038
7038
3870
3870
0FC0
0000
0000
0000
0000
0000
ENDCHAR

STARTCHAR Otilde
ENCODING 213
SWIDTH 568 0
DWIDTH 15 0
BBX 15 25 0 -5
BITMAP
0E10
1F90
13F0
10E0
0000
0FC0
3870
3870
7038
7038
7038
7038
7038
7038
7038
7038
7038
3870
3870
0FC0
0000
0000
0000
0000
0000
ENDCHAR

STARTCHAR Odieresis
ENCODING 214
SWIDTH 568 0
DWIDTH 15 0
BBX 15 25 0 -5
BITMAP
1CE0
1CE0
1CE0
0000
0000
0FC0
3870
3870
7038
7038
7038
7038
7038
7038
7038
7038
7038
3870
3870
0FC0
0000
0000
0000
0000
0000
ENDCHAR

STARTCHAR multiply
ENCODING 215
SWIDTH 568 0
DWIDTH 15 0
BBX 15 25 0 -5
BITMAP
0000
0000
0000
0000
0000
0000
0000
0000
3018
3838
1C70
0EE0
07C0
0380
07C0
0EE0
1C70
3838
3018
0000
0000
0000
0000
0000
0000
ENDCHAR

STARTCHAR Oslash
ENCODING 216
SWIDTH 568 0
DWIDTH 15 0
BBX 15 25 0 -5
BITMAP
0000
0000
0000
0010
0010
1FF0
3870
3870
70F8
70B8
70B8
7138
7338
7238
7238
7638
7C38
3870
3870
3FE0
2000
2000
0000
0000
0000
ENDCHAR

STARTCHAR Uogonek
ENCODING 217
SWIDTH 568 0
DWIDTH 15 0
BBX 15 25 0 -5
BITMAP
0000
0000
0000
0000
0000
7C7C
3838
3838
3838
3838
3838
3838
3838
3838
3838
3838
3838
1C70
1C70
07C0
01C0
01D8
00F0
0000
0000
ENDCHAR

STARTCHAR Uacute
ENCODING 218
SWIDTH 568 0
DWIDTH 15 0
BBX 15 25 0 -5
BITMAP
0078
00F0
01C0
0380
0000
7C7C
3838
3838
3838
3838
3838
3838
3838
3838
3838
3838
3838
1C70
1C70
07C0
0000
0000
0000
0000
0000
ENDCHAR

STARTCHAR Ucircumflex
ENCODING 219
SWIDTH 568 0
DWIDTH 15 0
BBX 15 25 0 -5
BITMAP
0380
0EE0
1C70
0000
0000
7C7C
3838
3838
3838
3838
3838
3838
3838
3838
3838
3838
3838
1C70
1C70
07C0
0000
0000
0000
0000
0000
ENDCHAR

STARTCHAR Udieresis
ENCODING 220
SWIDTH 568 0
DWIDTH 15 0
BBX 15 25 0 -5
BITMAP
1C70
1C70
1C70
0000
0000
7C7C
3838
3838
3838
3838
3838
3838
3838
3838
3838
3838
3838
1C70
1C70
07C0
0000
0000
0000
0000
0000
ENDCHAR

STARTCHAR Utilde
ENCODING 221
SWIDTH 568 0
DWIDTH 15 0
BBX 15 25 0 -5
BITMAP
0E10
1F90
13F0
10E0
0000
7C7C
3838
3838
3838
3838
3838
3838
3838
3838
3838
3838
3838
1C70
1C70
07C0
0000
0000
0000
0000
0000
ENDCHAR

STARTCHAR Umacron
ENCODING 222
SWIDTH 568 0
DWIDTH 15 0
BBX 15 25 0 -5
BITMAP
0000
0000
1FF0
0000
0000
7C7C
3838
3838
3838
3838
3838
3838
3838
3838
3838
3838
3838
1C70
1C70
07C0
0000
0000
0000
0000
0000
ENDCHAR

STARTCHAR germandbls
ENCODING 223
SWIDTH 568 0
DWIDTH 15 0
BBX 15 25 0 -5
BITMAP
0000
0000
0000
0000
07E0
0C30
1C38
1C38
1C38
1C38
1C30
1CE0
1C38
1C1C
1C1C
1C1C
1C1C
1C1C
1C38
FDF0
0000
0000
0000
0000
0000
ENDCHAR

STARTCHAR amacron
ENCODING 224
SWIDTH 568 0
DWIDTH 15 0
BBX 15 25 0 -5
BITMAP
0000
0000
0000
0000
0000
1FF0
0000
0000
0FC0
1CE0
0070
0070
0FF0
1C70
3870
3870
3870
3870
1CF0
0F78
0000
0000
0000
0000
0000
ENDCHAR

STARTCHAR aacute
ENCODING 225
SWIDTH 568 0
DWIDTH 15 0
BBX 15 25 0 -5
BITMAP
0000
0000
00F0
01E0
0380
0700
0000
0000
0FC0
1CE0
0070
0070
0FF0
1C70
3870
3870
3870
3870
1CF0
0F78
0000
0000
0000
0000
0000
ENDCHAR

STARTCHAR acircumflex
ENCODING 226
SWIDTH 568 0
DWIDTH 15 0
BBX 15 25 0 -5
BITMAP
0000
0000
0100
0380
0EE0
1C70
0000
0000
0FC0
1CE0
0070
0070
0FF0
1C70
3870
3870
3870
3870
1CF0
0F78
0000
0000
0000
0000
0000
ENDCHAR

STARTCHAR atilde
ENCODING 227
SWIDTH 568 0
DWIDTH 15 0
BBX 15 25 0 -5
BITMAP
0000
0000
0000
0E10
1F90
13F0
10E0
0000
0FC0
1CE0
0070
0070
0FF0
1C70
3870
3870
3870
3870
1CF0
0F78
0000
0000
0000
0000
0000
ENDCHAR

STARTCHAR adieresis
ENCODING 228
SWIDTH 568 0
DWIDTH 15 0
BBX 15 25 0 -5
BITMAP
0000
0000
0000
1C70
1C70
1C70
0000
0000
0FC0
1CE0
0070
0070
0FF0
1C70
3870
3870
3870
3870
1CF0
0F78
0000
0000
0000
0000
0000
ENDCHAR

STARTCHAR aring
ENCODING 229
SWIDTH 568 0
DWIDTH 15 0
BBX 15 25 0 -5
BITMAP
0000
07C0
0C60
0C60
0C60
07C0
0000
0000
0FC0
1CE0
0070
0070
0FF0
1C70
3870
3870
3870
3870
1CF0
0F78
0000
0000
0000
0000
0000
ENDCHAR

STARTCHAR ae
ENCODING 230
SWIDTH 568 0
DWIDTH 15 0
BBX 15 25 0 -5
BITMAP
0000
0000
0000
0000
0000
0000
0000
0000
1F3C
71EE
01C6
01C6
01C6
1FFE
71C0
71C0
71C0
71C6
39EE
1EFC
0000
0000
0000
0000
0000
ENDCHAR

STARTCHAR iogonek
ENCODING 231
SWIDTH 570 0
DWIDTH 15 0
BBX 15 25 0 -5
BITMAP
0000
0000
0000
0380
0380
0380
0000
0000
1F80
0380
0380
0380
0380
0380
0380
0380
0380
0380
0380
3FF8
0380
03B0
01E0
0000
0000
ENDCHAR

STARTCHAR ccaron
ENCODING 232
SWIDTH 568 0
DWIDTH 15 0
BBX 15 25 0 -5
BITMAP
0000
0000
1C70
0EE0
0380
0100
0000
0000
07D8
1E78
1C38
3818
3818
3800
3800
3800
3818
1C18
1E30
07E0
0000
0000
0000
0000
0000
ENDCHAR

STARTCHAR eacute
ENCODING 233
SWIDTH 568 0
DWIDTH 15 0
BBX 15 25 0 -5
BITMAP
0000
0000
0078
00F0
01C0
0380
0000
0000
07E0
1C70
1838
3838
3838
3FF8
3800
3800
3C00
1C18
1E38
07F0
0000
0000
0000
0000
0000
ENDCHAR

STARTCHAR eogonek
ENCODING 234
SWIDTH 568 0
DWIDTH 15 0
BBX 15 25 0 -5
BITMAP
0000
0000
0000
0000
0000
0000
0000
0000
07E0
1C70
1838
3838
3838
3FF8
3800
3800
3C00
1C18
1E38
07F0
0380
03B0
01E0
0000
0000
ENDCHAR

STARTCHAR edieresis
ENCODING 235
SWIDTH 568 0
DWIDTH 15 0
BBX 15 25 0 -5
BITMAP
0000
0000
0000
0E38
0E38
0E38
0000
0000
07E0
1C70
1838
3838
3838
3FF8
3800
3800
3C00
1C18
1E38
07F0
0000
0000
0000
0000
0000
ENDCHAR

STARTCHAR edotaccent
ENCODING 236
SWIDTH 568 0
DWIDTH 15 0
BBX 15 25 0 -5
BITMAP
0000
0000
0000
0380
0380
0380
0000
0000
07E0
1C70
1838
3838
3838
3FF8
3800
3800
3C00
1C18
1E38
07F0
0000
0000
0000
0000
0000
ENDCHAR

STARTCHAR iacute
ENCODING 237
SWIDTH 568 0
DWIDTH 15 0
BBX 15 25 0 -5
BITMAP
0000
0000
00F0
01E0
0380
0700
0000
0000
1F80
0380
0380
0380
0380
0380
0380
0380
0380
0380
0380
3FF8
0000
0000
0000
0000
0000
ENDCHAR

STARTCHAR icircumflex
ENCODING 238
SWIDTH 568 0
DWIDTH 15 0
BBX 15 25 0 -5
BITMAP
0000
0000
0100
0380
0EE0
1C70
0000
0000
1F80
0380
0380
0380
0380
0380
0380
0380
0380
0380
0380
3FF8
0000
0000
0000
0000
0000
ENDCHAR

STARTCHAR imacron
ENCODING 239
SWIDTH 568 0
DWIDTH 15 0
BBX 15 25 0 -5
BITMAP
0000
0000
0000
0000
0000
1FF0
0000
0000
1F80
0380
0380
0380
0380
0380
0380
0380
0380
0380
0380
3FF8
0000
0000
0000
0000
0000
ENDCHAR

STARTCHAR dcroat
ENCODING 240
SWIDTH 568 0
DWIDTH 15 0
BBX 15 25 0 -5
BITMAP
0000
0000
0000
0F10
0F70
01C0
01E0
0660
0030
0FF0
1C38
3838
3838
3838
3838
3838
3838
3838
1C70
07C0
0000
0000
0000
0000
0000
ENDCHAR

STARTCHAR ncommaaccent
ENCODING 241
SWIDTH 568 0
DWIDTH 15 0
BBX 15 25 0 -5
BITMAP
0000
0000
0000
0000
0000
0000
0000
0000
39E0
1E70
1C38
1C38
1C38
1C38
1C38
1C38
1C38
1C38
1C38
3C3C
0180
03C0
01C0
0180
0300
ENDCHAR

STARTCHAR omacron
ENCODING 242
SWIDTH 568 0
DWIDTH 15 0
BBX 15 25 0 -5
BITMAP
0000
0000
0000
0000
0000
1FF0
0000
0000
07C0
1C70
1C70
3838
3838
3838
3838
3838
3838
1C70
1C70
07C0
0000
0000
0000
0000
0000
ENDCHAR

STARTCHAR kcommaaccent
ENCODING 243
SWIDTH 568 0
DWIDTH 15 0
BBX 15 25 0 -5
BITMAP
0000
0000
0000
0000
3C00
1C00
1C00
1C00
1C7C
1C38
1C60
1CE0
1CC0
1F80
1DC0
1CE0
1C70
1C38
1C1C
3E3E
0180
03C0
01C0
0180
0300
ENDCHAR

STARTCHAR ocircumflex
ENCODING 244
SWIDTH 568 0
DWIDTH 15 0
BBX 15 25 0 -5
BITMAP
0000
0000
0100
0380
0EE0
1C70
0000
0000
07C0
1C70
1C70
3838
3838
3838
3838
3838
3838
1C70
1C70
07C0
0000
0000
0000
0000
0000
ENDCHAR

STARTCHAR otilde
ENCODING 245
SWIDTH 568 0
DWIDTH 15 0
BBX 15 25 0 -5
BITMAP
0000
0000
0000
0E10
1F90
13F0
10E0
0000
07C0
1C70
1C70
3838
3838
3838
3838
3838
3838
1C70
1C70
07C0
0000
0000
0000
0000
0000
ENDCHAR

STARTCHAR odieresis
ENCODING 246
SWIDTH 568 0
DWIDTH 15 0
BBX 15 25 0 -5
BITMAP
0000
0000
0000
1C70
1C70
1C70
0000
0000
07C0
1C70
1C70
3838
3838
3838
3838
3838
3838
1C70
1C70
07C0
0000
0000
0000
0000
0000
ENDCHAR

STARTCHAR divide
ENCODING 247
SWIDTH 568 0
DWIDTH 15 0
BBX 15 25 0 -5
BITMAP
0000
0000
0000
0000
0000
0000
0000
0380
0380
0380
0000
0000
3FF8
3FF8
0000
0000
0380
0380
0380
0000
0000
0000
0000
0000
0000
ENDCHAR

STARTCHAR oslash
ENCODING 248
SWIDTH 568 0
DWIDTH 15 0
BBX 15 25 0 -5
BITMAP
0000
0000
0000
0000
0000
0000
0000
0018
07F8
1C70
1870
38F8
39B8
39B8
3B38
3A38
3E38
1C30
1870
3FC0
3000
0000
0000
0000
0000
ENDCHAR

STARTCHAR uogonek
ENCODING 249
SWIDTH 568 0
DWIDTH 15 0
BBX 15 25 0 -5
BITMAP
0000
0000
0000
0000
0000
0000
0000
0000
78F0
3870
3870
3870
3870
3870
3870
3870
3870
3870
3CF0
1F3C
0700
0760
03C0
0000
0000
ENDCHAR

STARTCHAR uacute
ENCODING 250
SWIDTH 568 0
DWIDTH 15 0
BBX 15 25 0 -5
BITMAP
0000
0000
00F0
01E0
0380
0700
0000
0000
78F0
3870
3870
3870
3870
3870
3870
3870
3870
3870
3CF0
1F3C
0000
0000
0000
0000
0000
ENDCHAR

STARTCHAR ucircumflex
ENCODING 251
SWIDTH 568 0
DWIDTH 15 0
BBX 15 25 0 -5
BITMAP
0000
0000
0200
0700
1DC0
38E0
0000
0000
78F0
3870
3870
3870
3870
3870
3870
3870
3870
3870
3CF0
1F3C
0000
0000
0000
0000
0000
ENDCHAR

STARTCHAR udieresis
ENCODING 252
SWIDTH 568 0
DWIDTH 15 0
BBX 15 25 0 -5
BITMAP
0000
0000
0000
1C70
1C70
1C70
0000
0000
78F0
3870
3870
3870
3870
3870
3870
3870
3870
3870
3CF0
1F3C
0000
0000
0000
0000
0000
ENDCHAR

STARTCHAR utilde
ENCODING 253
SWIDTH 568 0
DWIDTH 15 0
BBX 15 25 0 -5
BITMAP
0000
0000
0000
1C20
3F20
27E0
21C0
0000
78F0
3870
3870
3870
3870
3870
3870
3870
3870
3870
3CF0
1F3C
0000
0000
0000
0000
0000
ENDCHAR

STARTCHAR umacron
ENCODING 254
SWIDTH 568 0
DWIDTH 15 0
BBX 15 25 0 -5
BITMAP
0000
0000
0000
0000
0000
3FE0
0000
0000
78F0
3870
3870
3870
3870
3870
3870
3870
3870
3870
3CF0
1F3C
0000
0000
0000
0000
0000
ENDCHAR

STARTCHAR dotaccent
ENCODING 255
SWIDTH 568 0
DWIDTH 15 0
BBX 15 25 0 -5
BITMAP
0000
0000
0380
0380
0380
0000
0000
0000
0000
0000
0000
0000
0000
0000
0000
0000
0000
0000
0000
0000
0000
0000
0000
0000
0000
ENDCHAR
ENDFONT
